<!DOCTYPE svg PUBLIC "-//W3C//DTD SVG 1.1//EN" "http://www.w3.org/Graphics/SVG/1.1/DTD/svg11.dtd">
<!-- Uploaded to: SVG Repo, www.svgrepo.com, Transformed by: SVG Repo Mixer Tools -->
<svg fill="#ffffff" height="800px" width="800px" version="1.1" id="Capa_1" xmlns="http://www.w3.org/2000/svg" xmlns:xlink="http://www.w3.org/1999/xlink" viewBox="0 0 281.488 281.488" xml:space="preserve" stroke="#ffffff">
<g id="SVGRepo_bgCarrier" stroke-width="0"/>
<g id="SVGRepo_tracerCarrier" stroke-linecap="round" stroke-linejoin="round"/>
<g id="SVGRepo_iconCarrier"> <g> <path d="M140.744,0C63.138,0,0,63.138,0,140.744s63.138,140.744,140.744,140.744s140.744-63.138,140.744-140.744 S218.351,0,140.744,0z M140.744,263.488C73.063,263.488,18,208.426,18,140.744S73.063,18,140.744,18 s122.744,55.063,122.744,122.744S208.426,263.488,140.744,263.488z"/> <path d="M195.813,89.334H85.676c-4.971,0-9,4.029-9,9s4.029,9,9,9h110.137c4.971,0,9-4.029,9-9S200.783,89.334,195.813,89.334z"/> <path d="M195.813,131.744H85.676c-4.971,0-9,4.029-9,9s4.029,9,9,9h110.137c4.971,0,9-4.029,9-9S200.783,131.744,195.813,131.744z"/> <path d="M195.813,174.154H85.676c-4.971,0-9,4.029-9,9s4.029,9,9,9h110.137c4.971,0,9-4.029,9-9S200.783,174.154,195.813,174.154z"/> </g> </g>
</svg>